<svg xmlns="http://www.w3.org/2000/svg" width="15.79" height="18.046" viewBox="0 0 15.79 18.046">
  <path id="user.1" d="M11.053,10.151c-1.012,0-1.5.564-3.158.564s-2.143-.564-3.158-.564A4.738,4.738,0,0,0,0,14.888v1.466a1.692,1.692,0,0,0,1.692,1.692H14.1a1.692,1.692,0,0,0,1.692-1.692V14.888A4.738,4.738,0,0,0,11.053,10.151Zm3.609,6.2a.566.566,0,0,1-.564.564H1.692a.566.566,0,0,1-.564-.564V14.888a3.612,3.612,0,0,1,3.609-3.609c.691,0,1.378.564,3.158.564s2.467-.564,3.158-.564a3.612,3.612,0,0,1,3.609,3.609ZM7.9,9.023A4.511,4.511,0,1,0,3.384,4.511,4.511,4.511,0,0,0,7.9,9.023Zm0-7.9A3.384,3.384,0,1,1,4.511,4.511,3.389,3.389,0,0,1,7.9,1.128Z"/>
</svg>
