<svg xmlns="http://www.w3.org/2000/svg" width="18.277" height="20.888" viewBox="0 0 18.277 20.888">
  <path id="bell.1" d="M9.134,19.582a1.307,1.307,0,0,1-1.305-1.307H6.523a2.611,2.611,0,1,0,5.222,0H10.439A1.307,1.307,0,0,1,9.134,19.582Zm8.542-5.923c-1.141-1.086-2.013-2.223-2.013-6.075A6.365,6.365,0,0,0,9.787,1.369V.653a.653.653,0,1,0-1.305,0v.716A6.365,6.365,0,0,0,2.6,7.584c0,3.852-.873,4.989-2.013,6.075a1.9,1.9,0,0,0-.459,2.09,1.947,1.947,0,0,0,1.821,1.222h14.36a1.947,1.947,0,0,0,1.821-1.223A1.9,1.9,0,0,0,17.676,13.659Zm-1.362,2.007H1.954A.619.619,0,0,1,1.492,14.6c1.422-1.354,2.418-2.87,2.418-7.02A5.1,5.1,0,0,1,9.134,2.611a5.1,5.1,0,0,1,5.224,4.973c0,4.135.988,5.659,2.418,7.02A.62.62,0,0,1,16.314,15.666Z" transform="translate(0.005)"/>
</svg>
