<svg xmlns="http://www.w3.org/2000/svg" width="15.043" height="20.058" viewBox="0 0 15.043 20.058">
  <path id="hourglass-end" d="M14.417,1.254h.157a.47.47,0,0,0,.47-.47V.47a.47.47,0,0,0-.47-.47H.47A.47.47,0,0,0,0,.47V.784a.47.47,0,0,0,.47.47H.627c0,3.6,1.728,7.587,5.079,8.775C2.344,11.222.627,15.219.627,18.8H.47a.47.47,0,0,0-.47.47v.313a.47.47,0,0,0,.47.47h14.1a.47.47,0,0,0,.47-.47v-.313a.47.47,0,0,0-.47-.47h-.157c0-3.6-1.728-7.587-5.079-8.775C12.7,8.836,14.417,4.839,14.417,1.254Zm-12.536,0H13.163c0,4.327-2.526,7.835-5.641,7.835S1.88,5.581,1.88,1.254ZM13.163,18.8H1.88c0-4.327,2.526-7.835,5.641-7.835S13.163,14.477,13.163,18.8ZM3.854,16.3h7.335a.471.471,0,0,1,.455.349q.044.164.081.33a.471.471,0,0,1-.459.575H3.777a.471.471,0,0,1-.459-.575q.036-.165.081-.33A.471.471,0,0,1,3.854,16.3ZM4.479,14.3q.126-.176.265-.342a.474.474,0,0,1,.362-.17H9.936a.474.474,0,0,1,.362.17q.139.166.265.342a.47.47,0,0,1-.384.741H4.864A.47.47,0,0,1,4.479,14.3Z"/>
</svg>
