<svg xmlns="http://www.w3.org/2000/svg" width="18.386" height="19.1" viewBox="0 0 18.386 19.1">
  <path id="cog" d="M35.2,19.217l-1.256-.725a7.516,7.516,0,0,0,0-1.883l1.256-.725a.922.922,0,0,0,.425-1.059,9.534,9.534,0,0,0-2.216-3.835.924.924,0,0,0-1.134-.165l-1.254.724a7.475,7.475,0,0,0-1.63-.943V9.157a.925.925,0,0,0-.712-.9,9.617,9.617,0,0,0-4.42,0,.925.925,0,0,0-.712.9v1.448a7.475,7.475,0,0,0-1.63.943l-1.254-.724a.924.924,0,0,0-1.134.165,9.534,9.534,0,0,0-2.216,3.835.922.922,0,0,0,.425,1.059l1.256.725a7.516,7.516,0,0,0,0,1.883l-1.256.725a.922.922,0,0,0-.425,1.059,9.534,9.534,0,0,0,2.216,3.835.924.924,0,0,0,1.134.165l1.254-.724a7.474,7.474,0,0,0,1.63.943v1.448a.925.925,0,0,0,.712.9,9.617,9.617,0,0,0,4.42,0,.925.925,0,0,0,.712-.9V24.495a7.476,7.476,0,0,0,1.63-.943l1.254.724a.924.924,0,0,0,1.134-.165,9.534,9.534,0,0,0,2.216-3.835.922.922,0,0,0-.425-1.059Zm-2.522,3.869-1.783-1.03a6.653,6.653,0,0,1-2.736,1.581V25.7a8.362,8.362,0,0,1-3.379,0V23.637a6.655,6.655,0,0,1-2.736-1.581l-1.783,1.03a8.318,8.318,0,0,1-1.692-2.925l1.784-1.03a6.709,6.709,0,0,1,0-3.161l-1.784-1.03a8.324,8.324,0,0,1,1.692-2.925l1.783,1.03a6.644,6.644,0,0,1,2.736-1.582V9.4a8.348,8.348,0,0,1,3.379,0v2.059a6.644,6.644,0,0,1,2.736,1.582l1.783-1.03a8.323,8.323,0,0,1,1.692,2.925l-1.784,1.03a6.709,6.709,0,0,1,0,3.161l1.784,1.03A8.318,8.318,0,0,1,32.677,23.085Zm-6.208-9.232a3.7,3.7,0,1,0,3.7,3.7A3.7,3.7,0,0,0,26.469,13.853Zm0,6.161a2.465,2.465,0,1,1,2.465-2.465A2.467,2.467,0,0,1,26.469,20.015Z" transform="translate(-17.276 -8)"/>
</svg>
