<svg xmlns="http://www.w3.org/2000/svg" xmlns:xlink="http://www.w3.org/1999/xlink" width="80" height="80" viewBox="0 0 80 80">
  <defs>
    <linearGradient id="linear-gradient" x1="0.463" y1="1" x2="0.549" gradientUnits="objectBoundingBox">
      <stop offset="0" stop-color="#b2b2b2"/>
      <stop offset="1" stop-color="#efb725"/>
    </linearGradient>
  </defs>
  <g id="Group_60" data-name="Group 60" transform="translate(-148 -648)">
    <g id="Ellipse_1" data-name="Ellipse 1" transform="translate(148 648)" fill="#fff" stroke="#e0e0e0" stroke-width="1">
      <circle cx="40" cy="40" r="40" stroke="none"/>
      <circle cx="40" cy="40" r="39.5" fill="none"/>
    </g>
    <path id="fingerprint" d="M27.953,18.558a10.892,10.892,0,0,0-7.794,3.077A10.1,10.1,0,0,0,17.179,29,75.088,75.088,0,0,1,15.65,45.315a1.746,1.746,0,0,0,1.355,2.065,1.768,1.768,0,0,0,2.065-1.359,78.634,78.634,0,0,0,1.6-17.075,6.639,6.639,0,0,1,1.956-4.839,7.489,7.489,0,0,1,12.638,5.161,91.848,91.848,0,0,1-1.214,16.388,1.745,1.745,0,0,0,1.437,2.008,1.655,1.655,0,0,0,.291.024,1.744,1.744,0,0,0,1.72-1.462,95.558,95.558,0,0,0,1.262-17.014A10.954,10.954,0,0,0,27.953,18.558Zm-.01,9.4a1.749,1.749,0,0,0-1.72,1.775,82.209,82.209,0,0,1-3.034,23.488l-.133.473a1.77,1.77,0,0,0,1.683,2.221,1.75,1.75,0,0,0,1.683-1.273l.133-.477A85.575,85.575,0,0,0,29.719,29.68a1.806,1.806,0,0,0-1.776-1.72ZM12.3,16.36a18.632,18.632,0,0,0-4.16,12.03A66.387,66.387,0,0,1,7.091,41.234,1.75,1.75,0,0,0,8.5,43.266a1.8,1.8,0,0,0,.313.027,1.751,1.751,0,0,0,1.717-1.435,70.1,70.1,0,0,0,1.1-13.523,14.939,14.939,0,0,1,3.376-9.771,1.747,1.747,0,1,0-2.711-2.2ZM55.9,27.612a26.8,26.8,0,0,0-.628-5.367A1.748,1.748,0,0,0,51.857,23a23.373,23.373,0,0,1,.546,4.667q.02,1.255.01,2.509a1.747,1.747,0,0,0,1.733,1.761h.013A1.747,1.747,0,0,0,55.907,30.2q.011-1.3-.009-2.591ZM27.581.006A27.083,27.083,0,0,0,7.674,7.964,25.979,25.979,0,0,0,.012,26.889q.02,1.237-.017,2.47a1.749,1.749,0,0,0,1.7,1.8h.048a1.75,1.75,0,0,0,1.747-1.7q.036-1.311.017-2.624a22.513,22.513,0,0,1,6.638-16.4A23.921,23.921,0,0,1,27.526,3.5a25.575,25.575,0,0,1,20.5,10.847,1.747,1.747,0,0,0,2.86-2.006A29.072,29.072,0,0,0,27.581.006Zm.14,9.275a19.916,19.916,0,0,0-4.935.536,1.746,1.746,0,1,0,.806,3.4,16.746,16.746,0,0,1,4.075-.44c9.041.133,16.5,7.378,16.641,16.151a100.714,100.714,0,0,1-.635,12.964,1.747,1.747,0,0,0,1.539,1.933,1.551,1.551,0,0,0,.2.012,1.748,1.748,0,0,0,1.733-1.55A104.736,104.736,0,0,0,47.8,28.873c-.163-10.642-9.173-19.431-20.08-19.592Z" transform="translate(160.599 660.591)" fill="url(#linear-gradient)"/>
  </g>
</svg>
