<svg xmlns="http://www.w3.org/2000/svg" width="141.372" height="134.992" viewBox="0 0 141.372 134.992">
  <g id="Group_16" data-name="Group 16" transform="translate(-438.141 -152.423)">
    <path id="Path_1" data-name="Path 1" d="M653.4,606.759c-.634.021-1.337.038-2.094.055a5.156,5.156,0,0,1,.948.737,5.075,5.075,0,0,1,1.426,4.194,67.66,67.66,0,0,1-1.217,8.7l9.4-.007,3.732-20.3A15.216,15.216,0,0,1,653.4,606.759Z" transform="translate(-163.408 -343.211)" fill="none"/>
    <path id="Path_2" data-name="Path 2" d="M850.854,626.833a3.224,3.224,0,0,1,.359.352,3.514,3.514,0,0,1,.67,3.2c-.42,1.838-1.608,8.446-1.949,10.357,1.858.025,7.455.011,10.265,0l2.461-13.394c.015-.092.05-.273.11-.507-.237,0-.411-.008-.5-.012Z" transform="translate(-315.676 -363.674)" fill="none"/>
    <path id="Path_3" data-name="Path 3" d="M602.286,394a2.779,2.779,0,0,0-.452,1.388l-.007.138-.026.135-7.168,37.033c.381.038.767.071,1.151.1.946.065.981-.293.982-.308l.009-.119.023-.117c.065-.328,5.385-27.209,7.536-38.22-.679,0-1.378-.01-2.021-.026Z" transform="translate(-119.965 -185.186)" fill="none"/>
    <path id="Path_4" data-name="Path 4" d="M725.876,562.663a3.71,3.71,0,0,1,.985-.252,13.081,13.081,0,0,1-.413-2.573Z" transform="translate(-220.574 -312.318)" fill="none"/>
    <path id="Path_5" data-name="Path 5" d="M860.394,409.042a3.876,3.876,0,0,1-1-.89,4.25,4.25,0,0,1-.739-3.51c.106-.49,1.488-6.924,2.523-11.809-.734,0-1.425.01-1.891.036l-.036,0c-.415,2.084-5.527,27.755-7.821,38.879.434,0,.888-.007,1.346-.014.193,0,.775-.013.944-.509.191-.9,2.784-13.109,3.146-16.581a5.628,5.628,0,0,1,3.361-4.77c.017-.117.038-.229.063-.333C860.3,409.478,860.338,409.3,860.394,409.042Z" transform="translate(-316.82 -184.294)" fill="none"/>
    <path id="Path_6" data-name="Path 6" d="M621.449,668.5c-.063.443-.119.882-.168,1.306.163-.417.312-.856.441-1.306Z" transform="translate(-140.394 -395.615)" fill="none"/>
    <path id="Path_7" data-name="Path 7" d="M745.885,615.041a12.907,12.907,0,0,1-8-3.572c-.916,5.133-2.232,12.579-3.088,17.436h9.356l1.341-7.532c.319-1.938,1.358-4.859,3.427-6.318H746Z" transform="translate(-227.411 -351.896)" fill="none"/>
    <path id="Path_8" data-name="Path 8" d="M625.851,200.246a16.545,16.545,0,0,1,7.687-2.1H644c4.012-4.466,10.147-6.364,11.844-6.821a2.324,2.324,0,0,0-.956-.677c-.729-.3-3.5-1.091-8.6,1.492-6.139,3.109-10.344,1.484-10.52,1.413l-1.131-.455,1.2-.215c3.6-.644,7.086-5.81,8.58-8.761a11.3,11.3,0,0,1,5.318-4.915l.129-.064a2.767,2.767,0,0,0,.932-.771c-4.552-1.3-6.716.916-9.94,4.211-.65.664-1.323,1.352-2.069,2.067-2.121,2.031-3.878,2.965-5.231,2.769a1.813,1.813,0,0,1-1.306-.785l-.129-.226.178-.189c4.949-5.251,5.117-8.34,5.118-8.37.01-.183.256-4.347,1.566-5.822a9.394,9.394,0,0,0,1.637-3.26c-1.6.122-4.929,2.652-8.031,8.405-3.575,6.627-7.528,4.983-7.694,4.91l-.44-.193.319-.36a14.8,14.8,0,0,0,1.752-2.6c.76-1.428.617-7.33.351-9.544-.2-1.652.659-6.268.979-7.9-1.452.614-4.229,3-4.874,9.181-.751,7.191-4.472,9.072-4.63,9.149l-.347.168-.133-.362c-.024-.065-.576-1.626.384-4.586.866-2.67-1.268-7.38-2.374-9.118-.866-1.361-1.73-4.841-2.091-6.412-1.325,2.191-2.262,6.5-1.006,12.454,1.4,6.632-1.9,8.584-2.038,8.663l-.936.53.445-.98c.519-1.142-1.113-8.2-4.566-10.9-3.031-2.372-4.217-7.012-4.554-8.659-2.214,2.348.834,9.8,2.28,12.62,2.975,6.069.7,9.584.6,9.73l-.481.718-.154-.851c-.838-4.632-5.159-7.687-5.649-8.02-.843-.574-6.5-5.3-8.218-6.734-.566,5.778,5.425,10.87,5.488,10.922,4.547,3.67,3.583,8.171,3.54,8.36l-.229,1.007-.43-.939c-1.13-2.466-4.164-4.542-7.728-5.289a18.537,18.537,0,0,1-7.967-4.385,9.528,9.528,0,0,0-2.557-1.612c.725,5.783,3.773,7.41,6.994,9.129.753.4,1.531.818,2.271,1.287,4.049,2.566,4.055,4.725,4.053,4.816l-.012.61-.521-.318c-3.605-2.2-8.639-2.073-11.97-1.986-2.412.062-3.593.069-4.087-.442a7.105,7.105,0,0,0-2.963-1.466c.4,4.823,8.654,6.322,11.236,6.672a15.487,15.487,0,0,1,7.557,3.829l8.422-.1c.856-.054,7.867-.351,11.9,4.153a10.742,10.742,0,0,1,2.638,6.236,11.157,11.157,0,0,1,1.641,4.962C618.473,205.832,622.566,202.067,625.851,200.246Z" transform="translate(-103.685 -5.426)" fill="#ffd566"/>
    <path id="Path_9" data-name="Path 9" d="M589.838,192.842a15.488,15.488,0,0,0-7.556-3.829c-2.583-.35-10.832-1.849-11.236-6.672a7.1,7.1,0,0,1,2.962,1.466c.495.511,1.676.5,4.088.442,3.332-.086,8.365-.215,11.97,1.986l.521.318.012-.61c0-.091,0-2.249-4.053-4.815-.741-.469-1.519-.885-2.272-1.287-3.221-1.719-6.268-3.347-6.994-9.129a9.542,9.542,0,0,1,2.557,1.612,18.533,18.533,0,0,0,7.966,4.385c3.564.746,6.6,2.822,7.729,5.289l.43.939.23-1.007c.043-.19,1.007-4.69-3.54-8.36-.063-.053-6.054-5.144-5.489-10.922,1.72,1.439,7.374,6.161,8.218,6.734.49.333,4.81,3.388,5.649,8.02l.154.851.481-.718c.1-.147,2.374-3.661-.6-9.73-1.447-2.823-4.495-10.272-2.28-12.62.337,1.647,1.523,6.287,4.554,8.659,3.453,2.7,5.085,9.758,4.565,10.9l-.445.98.937-.53c.141-.08,3.435-2.031,2.037-8.663-1.256-5.956-.319-10.264,1.006-12.454.361,1.571,1.225,5.051,2.091,6.412,1.106,1.739,3.24,6.449,2.374,9.119-.96,2.96-.408,4.521-.384,4.586l.133.362.347-.168c.159-.077,3.88-1.957,4.631-9.149.646-6.181,3.421-8.567,4.874-9.181-.32,1.635-1.177,6.251-.979,7.9.266,2.214.409,8.116-.351,9.544a14.806,14.806,0,0,1-1.752,2.6l-.32.36.44.193c.166.073,4.12,1.717,7.695-4.91,3.1-5.753,6.431-8.283,8.031-8.405a9.392,9.392,0,0,1-1.638,3.26c-1.31,1.475-1.556,5.639-1.566,5.822,0,.031-.169,3.119-5.118,8.37l-.178.189.129.225a1.81,1.81,0,0,0,1.306.785c1.353.2,3.111-.737,5.231-2.769.746-.715,1.419-1.4,2.069-2.067,3.224-3.295,5.388-5.506,9.94-4.211a2.766,2.766,0,0,1-.932.771l-.129.064a11.3,11.3,0,0,0-5.318,4.915c-1.494,2.951-4.983,8.118-8.58,8.761l-1.2.215,1.131.455c.176.071,4.381,1.7,10.52-1.413,5.1-2.582,7.872-1.794,8.6-1.492a2.319,2.319,0,0,1,.956.677c-1.7.456-7.832,2.355-11.843,6.821h.961c4.483-4.589,11.4-6.233,11.477-6.249l.372-.086-.118-.363a2.534,2.534,0,0,0-1.536-1.445c-1.023-.425-3.967-1.13-9.186,1.514a14.36,14.36,0,0,1-8.759,1.674c3.388-1.451,6.444-6.018,7.828-8.751a10.647,10.647,0,0,1,5-4.6l.131-.065a3.438,3.438,0,0,0,1.482-1.446l.171-.361-.38-.123c-5.269-1.7-7.713.8-11.1,4.254-.647.66-1.315,1.344-2.053,2.051-2.417,2.316-3.847,2.683-4.621,2.585a1.281,1.281,0,0,1-.654-.265c4.913-5.3,5.084-8.457,5.089-8.584,0-.041.241-4.1,1.39-5.389a10.705,10.705,0,0,0,1.907-3.963l.084-.346-.347-.078c-1.931-.436-5.8,2.479-9.177,8.734-2.583,4.789-5.263,4.911-6.326,4.729a16.158,16.158,0,0,0,1.5-2.311c.926-1.74.644-8.156.428-9.957-.225-1.867,1.071-8.188,1.085-8.252l.1-.5-.5.081c-1.4.226-5.189,2.456-5.972,9.957-.564,5.409-2.91,7.648-3.849,8.338a8.511,8.511,0,0,1,.484-3.681c.951-2.933-1.24-7.809-2.449-9.711-1.043-1.638-2.159-6.911-2.17-6.964l-.152-.724-.464.577c-1.711,2.13-3.027,6.841-1.587,13.674.91,4.313-.258,6.447-1.06,7.352-.02-2.565-1.787-8.285-4.917-10.734-3.426-2.681-4.392-8.742-4.4-8.8l-.081-.523-.45.279c-4.137,2.559,1.367,13.418,1.6,13.873,1.951,3.979,1.494,6.8,1.04,8.141-1.271-4.336-5.224-7.131-5.7-7.456-.946-.644-8.57-7.034-8.647-7.1l-.463-.388-.106.595c-1.151,6.428,5.366,11.963,5.648,12.2a8.344,8.344,0,0,1,3.4,6.6,12.376,12.376,0,0,0-7.66-4.686,18,18,0,0,1-7.594-4.174A12.157,12.157,0,0,0,577,169.819l-.537-.224.054.58c.619,6.65,4.08,8.5,7.426,10.284.741.4,1.508.805,2.226,1.261a8.664,8.664,0,0,1,3.525,3.508c-3.694-1.882-8.421-1.761-11.618-1.678-1.6.041-3.263.084-3.566-.229a8.6,8.6,0,0,0-3.76-1.773l-.414-.085-.007.422c-.092,5.754,9.053,7.442,11.857,7.822a14.226,14.226,0,0,1,6.562,3.148Z" transform="translate(-101.334 0)"/>
    <path id="Path_10" data-name="Path 10" d="M623.073,410.381c.047-.192,4.288-17.544,6.581-33.517.112-.777.247-1.515.4-2.223a11.163,11.163,0,0,0-1.641-4.962,18.2,18.2,0,0,1-.3,5.271l-7.528,37.165a20.278,20.278,0,0,1-2.994,6.33,15.234,15.234,0,0,1-12.292,6.745c-3.3.108-8.415.149-13.907.155l-.656,3.964c-.013.074-.029.143-.043.215a4.811,4.811,0,0,1,1.9-.4c2.124-.036,6.727-.006,7.434,0a8.737,8.737,0,0,1,4.809,1.027c.757-.016,1.461-.034,2.094-.055a15.213,15.213,0,0,0,12.2-6.619l.606-3.3a4.336,4.336,0,0,1,2.508-3.285l.572-2.825A13.744,13.744,0,0,1,623.073,410.381Z" transform="translate(-116.95 -166.544)"/>
    <path id="Path_11" data-name="Path 11" d="M503.038,360.2a2.687,2.687,0,0,0-.8-2.438c-.194-.158-.373-.318-.545-.479a3.187,3.187,0,0,0-.123.3c-.445,1.271-.022,2.668,1.189,4.024.169-.852.267-1.345.276-1.391Z" transform="translate(-48.492 -157.04)"/>
    <path id="Path_12" data-name="Path 12" d="M593.521,379.559l.027-.135.007-.138a2.778,2.778,0,0,1,.452-1.388h.027c.643.016,1.343.023,2.021.026.456-2.337.77-3.96.86-4.461.032-.175.052-.325.065-.452-1.13.013-3.019.025-4.58-.014h-.027a2.781,2.781,0,0,0-.451,1.388l-.007.137-.026.135-8.056,41.617c.732.111,1.609.228,2.521.318Z" transform="translate(-111.685 -169.087)"/>
    <path id="Path_13" data-name="Path 13" d="M474.092,605.609l-.126,0-.126-.018a3.472,3.472,0,0,1-1.393-.556,5.079,5.079,0,0,0,.646,3.947,3.661,3.661,0,0,0,2.381,1.511l.125.018.126,0h.02a15.643,15.643,0,0,1,2.268-4.862C475.635,605.627,474.157,605.61,474.092,605.609Z" transform="translate(-26.204 -346.963)"/>
    <path id="Path_14" data-name="Path 14" d="M534.4,611.955c.154-.875.418-2.287.675-3.65-2.4,1.262-5.222,3.017-6.683,4.8,1.838.014,3.845.027,5.937.038A4.909,4.909,0,0,1,534.4,611.955Z" transform="translate(-69.182 -349.471)"/>
    <path id="Path_15" data-name="Path 15" d="M984.005,371.271c-.156.835-2.245,11.988-2.916,14.5a4.924,4.924,0,0,1-4.566,3.834,4.4,4.4,0,0,1,1.966,1.513,4.726,4.726,0,0,1,.789,3.2,4.911,4.911,0,0,0,3.445-3.643c.671-2.511,2.76-13.665,2.916-14.5.131-.6,1.1-5.548-1.428-9.525A15.415,15.415,0,0,1,984.005,371.271Z" transform="translate(-412.717 -164.221)"/>
    <path id="Path_16" data-name="Path 16" d="M850.495,376.77c.466-.025,1.157-.034,1.891-.036.45-2.124.834-3.956,1.02-4.879-1.242-.02-3.48-.044-4.545.013l-.036,0c-.51,2.56-8.113,40.735-8.864,43.774.588.007,1.567.013,2.676.007,2.294-11.124,7.407-36.8,7.821-38.879Z" transform="translate(-308.031 -168.195)"/>
    <path id="Path_17" data-name="Path 17" d="M801.058,502.938a16.072,16.072,0,0,1-10.72,11.643,22.62,22.62,0,0,1-7.215,1.223c-.3,0-.506-.008-.612-.013h-28l-.119-.015a14.8,14.8,0,0,1-5.8-1.838c-.16.887-.353,1.963-.568,3.168a12.9,12.9,0,0,0,8,3.572l.119.015h2.915a4.765,4.765,0,0,1,2.683-.894h8.079a4.341,4.341,0,0,1,2.909.895h11.414c.092,0,.266.01.5.012a4.9,4.9,0,0,1,2.71-3.435c1.695-.81,3.97-1.49,5.373-.268a2.592,2.592,0,0,1,.871,1.825,15.946,15.946,0,0,0,9.09-10.988l2.886-14.337a5.079,5.079,0,0,0-.619-4.171,4.207,4.207,0,0,0-.959-.958c-.02.089-.039.167-.056.227Z" transform="translate(-237.553 -257.534)"/>
    <path id="Path_18" data-name="Path 18" d="M889.176,462.776c-.025.1-.046.216-.062.333a7.111,7.111,0,0,1,1.095-.4,4.533,4.533,0,0,1-.925-.435Z" transform="translate(-345.71 -237.527)"/>
    <path id="Path_19" data-name="Path 19" d="M583.071,413.75c2.164.144,2.336-1.325,2.348-1.494l.011-.084c.079-.4,7.883-39.825,8.4-42.7.25-1.386-.017-1.81-.1-1.907a.766.766,0,0,0-.083-.072l-.043,0c-.032,0-3.193.058-5.516,0-1.627-.041-1.791,2.578-1.792,2.6l-.012.1-8.119,41.945a5.156,5.156,0,0,1,2.07.666,4.519,4.519,0,0,1,.965.773C581.8,413.646,582.438,413.708,583.071,413.75Zm-3.587-1.7,8.056-41.617.026-.135.007-.137a2.78,2.78,0,0,1,.452-1.388h.027c1.561.039,3.45.027,4.58.014-.013.127-.033.277-.065.452-.09.5-.4,2.125-.86,4.462-2.151,11.011-7.471,37.892-7.536,38.22l-.023.118-.009.119c0,.016-.037.373-.982.309-.385-.026-.771-.059-1.152-.1C581.093,412.281,580.215,412.164,579.484,412.054Z" transform="translate(-107.337 -164.866)"/>
    <path id="Path_20" data-name="Path 20" d="M528.071,391.556a17.818,17.818,0,0,0,2.6-5.433l7.505-37.06c.76-3.987.188-7.085-1.7-9.2-3.323-3.717-9.708-3.273-9.772-3.268l-.046,0-40.691.467c-1.574.018-2.247.35-2.345.629-.124.355.34,1.2,1.467,2.115a5.367,5.367,0,0,1,1.729,5.068c-.091.455-9.283,46.786-9.9,49.788a2.736,2.736,0,0,0,.173,2.072,1.032,1.032,0,0,0,.537.4c.411,0,2.656.03,5.931.059A27.586,27.586,0,0,1,490.2,391.8c1.121-.708,5.2-3.131,8.837-3.382l8.158-42.142c.088-1.381.849-3.882,3.143-3.882h.08c2.212.055,5.2,0,5.44,0a1.575,1.575,0,0,1,1.2.53c.555.613.705,1.654.446,3.1-.513,2.851-8.116,41.267-8.4,42.69a3.165,3.165,0,0,1-3.449,2.753c-.125,0-.253,0-.385-.014-.275-.018-.551-.04-.824-.064a7.865,7.865,0,0,1,.457,3.55l-.022.185-.358,2.163c5.293-.007,10.187-.049,13.375-.152A12.478,12.478,0,0,0,528.071,391.556Z" transform="translate(-29.64 -141.169)"/>
    <path id="Path_21" data-name="Path 21" d="M468.584,390.99h.126c.066,0,1.544.018,3.922.041q.442-.655.93-1.275c-2.91-.027-4.764-.048-4.837-.049l-.089-.007a2.365,2.365,0,0,1-1.51-.98,3.976,3.976,0,0,1-.4-3.161c.615-3,9.807-49.324,9.9-49.791a3.953,3.953,0,0,0-1.244-3.7c-1.574-1.285-2.267-2.621-1.9-3.663.356-1.017,1.584-1.543,3.65-1.567h0l40.669-.467c.532-.039,7.179-.423,10.9,3.727,2.2,2.458,2.886,5.96,2.038,10.409l-7.515,37.107a18.861,18.861,0,0,1-2.794,5.887,13.993,13.993,0,0,1-11.286,6.2c-3.247.106-8.256.148-13.652.154l-.212,1.284c5.491-.006,10.605-.047,13.906-.155a15.233,15.233,0,0,0,12.292-6.745,20.282,20.282,0,0,0,2.994-6.33l7.528-37.165a18.207,18.207,0,0,0,.3-5.27,10.747,10.747,0,0,0-2.638-6.236c-4.034-4.5-11.045-4.208-11.9-4.153l-8.422.1-1.089.012-31.123.357c-2.663.031-4.294.847-4.847,2.427-.509,1.453.116,3.069,1.757,4.6.172.161.351.321.545.479a2.687,2.687,0,0,1,.8,2.438l0,.016c-.01.046-.107.539-.276,1.391-1.545,7.788-9.068,45.694-9.622,48.393a5.182,5.182,0,0,0,.61,4.159,3.721,3.721,0,0,0,.988.955,3.475,3.475,0,0,0,1.393.556Z" transform="translate(-20.823 -132.346)"/>
    <path id="Path_22" data-name="Path 22" d="M762.679,325.046H752.218a16.546,16.546,0,0,0-7.688,2.1c-3.286,1.821-7.379,5.586-9.061,13.276-.155.708-.292,1.447-.4,2.223-2.292,15.974-6.533,33.326-6.58,33.517a13.776,13.776,0,0,0-.249,3.685,13.062,13.062,0,0,0,.413,2.573c.124-.014.25-.024.38-.026h.943a12.553,12.553,0,0,1-.237-5.938c.044-.181,4.3-17.59,6.6-33.629,1.246-8.685,5.482-12.711,8.815-14.559a15,15,0,0,1,7.071-1.937h28.914c4.328-.106,7.505,1.049,9.447,3.434,3.012,3.7,1.9,8.958,1.81,9.355-.123.655-2.233,11.937-2.9,14.423a3.637,3.637,0,0,1-3.623,2.883c-.611,0-13.263.06-16.795.117a3.7,3.7,0,0,1-3.136-1.155,3.015,3.015,0,0,1-.5-2.422c.082-.38,3.347-15.576,3.651-17.245a1.07,1.07,0,0,0-.083-.774.678.678,0,0,0-.409-.23c-.408-.008-4-.081-5.482,0a1.211,1.211,0,0,0-1.206.94c-.338,1.7-8.222,41.3-8.881,43.858a1.64,1.64,0,0,0,.034,1.328.78.78,0,0,0,.565.211l.057,0c.023,0,2.273.039,4.645,0a2.072,2.072,0,0,0,2.168-1.477c.026-.122,2.8-13.108,3.177-16.763a4.866,4.866,0,0,1,5.145-4.284c.086,0,10.5-.077,14.82,0a4.057,4.057,0,0,1,3.443,1.442,3.838,3.838,0,0,1,.414,3.124l-2.88,14.32a14.871,14.871,0,0,1-9.9,10.749,21.2,21.2,0,0,1-6.764,1.152c-.323,0-.533-.01-.606-.014H739.4l-.042,0a13.119,13.119,0,0,1-5.708-1.927c-.069.378-.152.838-.247,1.363a14.8,14.8,0,0,0,5.8,1.838l.119.015h28c.106,0,.316.013.612.013a22.613,22.613,0,0,0,7.214-1.223,16.072,16.072,0,0,0,10.721-11.643l2.885-14.336c.017-.06.036-.138.055-.227a5.9,5.9,0,0,0,.115-.747,4.72,4.72,0,0,0-.789-3.2,4.4,4.4,0,0,0-1.966-1.514,4.922,4.922,0,0,0,4.566-3.834c.672-2.511,2.76-13.664,2.917-14.5a15.422,15.422,0,0,0,.206-4.623,10.943,10.943,0,0,0-2.278-5.8c-2.2-2.705-5.719-4.019-10.457-3.907H762.679Zm3.088,32.861a5.629,5.629,0,0,0-3.361,4.77c-.362,3.472-2.954,15.684-3.146,16.581-.168.5-.75.505-.943.509-.459.008-.912.012-1.346.015-1.109.006-2.089,0-2.676-.007.752-3.039,8.354-41.214,8.864-43.774l.036,0c1.064-.058,3.3-.033,4.544-.014-.185.923-.569,2.755-1.02,4.88-1.035,4.885-2.417,11.318-2.523,11.809a4.25,4.25,0,0,0,.739,3.51,3.871,3.871,0,0,0,1,.89,4.541,4.541,0,0,0,.925.435A7.179,7.179,0,0,0,765.766,357.907Z" transform="translate(-222.363 -132.325)"/>
    <path id="Path_23" data-name="Path 23" d="M776.238,396.714a19.586,19.586,0,0,0,6.887-1.076,13.323,13.323,0,0,0,8.958-9.74l2.883-14.338.012-.038a2.479,2.479,0,0,0-.212-1.931,2.8,2.8,0,0,0-2.324-.85c-4.3-.077-14.7,0-14.8,0-.156,0-3.427-.008-3.744,3.029-.388,3.729-3.087,16.381-3.2,16.919a3.491,3.491,0,0,1-3.514,2.577c-2.26.037-4.411,0-4.666,0a2.136,2.136,0,0,1-1.693-.7,2.789,2.789,0,0,1-.321-2.583c.649-2.52,8.779-43.355,8.861-43.767a2.623,2.623,0,0,1,2.506-2.08c1.612-.088,5.463,0,5.626,0l.041,0a2.09,2.09,0,0,1,1.405.767,2.3,2.3,0,0,1,.355,1.885c-.309,1.7-3.524,16.659-3.661,17.295l-.006.026a1.606,1.606,0,0,0,.239,1.235,2.585,2.585,0,0,0,2.008.614c3.609-.057,16.7-.116,16.833-.117h.048A2.218,2.218,0,0,0,796.962,362c.656-2.455,2.854-14.214,2.876-14.332l.006-.03c.012-.048,1.1-4.952-1.533-8.177-1.656-2.028-4.462-3.008-8.329-2.911H761.022a13.825,13.825,0,0,0-6.43,1.794c-4.41,2.473-7.118,7.015-8.049,13.5-2.313,16.109-6.584,33.583-6.626,33.758a11.222,11.222,0,0,0,.4,5.731,3.33,3.33,0,0,1,1.833,1.143,3,3,0,0,1,.6,2.182,11.173,11.173,0,0,0,5.562,2.059Z" transform="translate(-231.183 -141.14)"/>
    <path id="Path_24" data-name="Path 24" d="M524.64,387.712a18.857,18.857,0,0,0,2.794-5.887l7.515-37.106c.849-4.45.163-7.952-2.038-10.41-3.716-4.149-10.362-3.766-10.9-3.727l-40.669.467h0c-2.066.024-3.294.551-3.65,1.567-.365,1.042.329,2.377,1.9,3.663a3.955,3.955,0,0,1,1.244,3.7c-.093.468-9.285,46.794-9.9,49.791a3.975,3.975,0,0,0,.4,3.161,2.365,2.365,0,0,0,1.51.98l.089.007c.073,0,1.927.022,4.837.049.377-.481.771-.945,1.175-1.39-3.275-.029-5.52-.054-5.931-.059a1.031,1.031,0,0,1-.537-.395,2.736,2.736,0,0,1-.173-2.072c.616-3,9.809-49.332,9.9-49.788a5.368,5.368,0,0,0-1.729-5.068c-1.127-.92-1.59-1.761-1.466-2.115.1-.279.77-.611,2.345-.629l40.691-.467.046,0c.064-.005,6.449-.45,9.772,3.268,1.891,2.115,2.463,5.213,1.7,9.2l-7.505,37.06a17.816,17.816,0,0,1-2.6,5.433,12.478,12.478,0,0,1-10.162,5.575c-3.187.1-8.082.145-13.375.153l-.232,1.4c5.4-.007,10.405-.048,13.652-.154A13.992,13.992,0,0,0,524.64,387.712Z" transform="translate(-25.04 -136.553)" fill="#ffd566"/>
    <path id="Path_25" data-name="Path 25" d="M743.6,393.514h27.953c.073,0,.283.014.606.014a21.2,21.2,0,0,0,6.764-1.152,14.87,14.87,0,0,0,9.9-10.749l2.88-14.32a3.839,3.839,0,0,0-.414-3.124,4.057,4.057,0,0,0-3.443-1.442c-4.316-.077-14.735,0-14.82,0a4.866,4.866,0,0,0-5.145,4.284c-.381,3.655-3.151,16.641-3.177,16.763a2.071,2.071,0,0,1-2.168,1.477c-2.371.039-4.622,0-4.645,0l-.057,0a.784.784,0,0,1-.566-.211,1.643,1.643,0,0,1-.033-1.328c.659-2.557,8.543-42.158,8.881-43.858a1.21,1.21,0,0,1,1.206-.94c1.477-.081,5.074-.008,5.481,0a.674.674,0,0,1,.409.229,1.071,1.071,0,0,1,.083.775c-.3,1.669-3.569,16.865-3.651,17.245a3.019,3.019,0,0,0,.5,2.422,3.7,3.7,0,0,0,3.136,1.154c3.532-.057,16.184-.114,16.8-.117a3.637,3.637,0,0,0,3.622-2.883c.665-2.486,2.776-13.768,2.9-14.423.09-.4,1.2-5.657-1.809-9.356-1.942-2.384-5.12-3.54-9.447-3.434H756.418a15.006,15.006,0,0,0-7.07,1.937c-3.333,1.848-7.568,5.874-8.815,14.559-2.3,16.04-6.558,33.449-6.6,33.629a12.572,12.572,0,0,0,.237,5.938h.742a3.878,3.878,0,0,1,.781.12,11.233,11.233,0,0,1-.4-5.732c.043-.175,4.314-17.649,6.627-33.758.931-6.485,3.639-11.027,8.049-13.5a13.824,13.824,0,0,1,6.43-1.794h28.961c3.867-.1,6.674.883,8.33,2.911,2.633,3.225,1.543,8.128,1.532,8.177l-.006.03c-.023.119-2.22,11.877-2.876,14.332a2.218,2.218,0,0,1-2.206,1.845h-.049c-.132,0-13.223.059-16.833.117a2.587,2.587,0,0,1-2.008-.615,1.609,1.609,0,0,1-.239-1.235l.006-.026c.137-.636,3.351-15.592,3.661-17.295a2.3,2.3,0,0,0-.355-1.885,2.088,2.088,0,0,0-1.405-.767l-.041,0c-.163,0-4.013-.087-5.626,0a2.623,2.623,0,0,0-2.506,2.08c-.082.412-8.212,41.247-8.861,43.767a2.789,2.789,0,0,0,.321,2.582,2.139,2.139,0,0,0,1.693.7c.255,0,2.406.036,4.666,0a3.49,3.49,0,0,0,3.513-2.577c.115-.537,2.813-13.19,3.2-16.919.317-3.038,3.588-3.028,3.744-3.029.1,0,10.5-.077,14.8,0a2.793,2.793,0,0,1,2.324.85,2.478,2.478,0,0,1,.212,1.931l-.013.038L787.458,381.3a13.321,13.321,0,0,1-8.957,9.74,19.591,19.591,0,0,1-6.887,1.076l-27.933,0a11.167,11.167,0,0,1-5.561-2.058,3.827,3.827,0,0,1-.059.381c-.029.138-.1.539-.216,1.147a13.113,13.113,0,0,0,5.709,1.927Z" transform="translate(-226.559 -136.541)" fill="#ffd566"/>
    <path id="Path_26" data-name="Path 26" d="M578.693,410.564a3.165,3.165,0,0,0,3.448-2.753c.282-1.423,7.885-39.839,8.4-42.69.259-1.441.109-2.482-.446-3.1a1.574,1.574,0,0,0-1.2-.53c-.236,0-3.228.055-5.44,0h-.08c-2.294,0-3.055,2.5-3.143,3.882l-8.157,42.142a7.755,7.755,0,0,1,1.422.024l8.119-41.945.012-.1c0-.027.165-2.646,1.792-2.6,2.323.058,5.484,0,5.516,0l.043,0a.762.762,0,0,1,.083.072c.088.1.355.52.105,1.907-.518,2.878-8.321,42.306-8.4,42.7l-.012.084c-.012.168-.184,1.637-2.348,1.494-.632-.042-1.269-.1-1.876-.173a4.783,4.783,0,0,1,.959,1.506c.273.024.549.046.824.064C578.441,410.56,578.569,410.564,578.693,410.564Z" transform="translate(-102.667 -160.27)" fill="#ffd566"/>
    <path id="Path_27" data-name="Path 27" d="M618.158,662.5h-3.219c-.569,3.385-.749,6.531-.419,7.272C616.058,668.848,617.668,665.588,618.158,662.5Zm-2.018,1.4h.273c-.129.45-.278.889-.441,1.307C616.021,664.783,616.078,664.343,616.14,663.9Z" transform="translate(-135.084 -391.015)"/>
    <path id="Path_28" data-name="Path 28" d="M578.914,589.471a4.608,4.608,0,0,0-3.628-1.346c-.739,0-12.459-.041-15.08-.1-.123,0-.226-.01-.313-.019a18.876,18.876,0,0,1,.929-4.577,3.6,3.6,0,0,0,2.6-3.649,11.074,11.074,0,0,1,.411-2.487,2.919,2.919,0,0,0-.463-2.777,3.68,3.68,0,0,0-3.049-1.168h-4.31a3.3,3.3,0,0,0,.038-.708,2.593,2.593,0,0,0-.871-1.825c-1.4-1.222-3.678-.542-5.373.268a4.9,4.9,0,0,0-2.71,3.435c-.061.234-.1.415-.111.508l-2.46,13.394c-2.81.009-8.407.022-10.266,0,.341-1.91,1.531-8.519,1.95-10.357a3.516,3.516,0,0,0-.67-3.2,3.24,3.24,0,0,0-.359-.352,4.343,4.343,0,0,0-2.909-.9H524.19a4.762,4.762,0,0,0-2.683.894c-2.069,1.458-3.108,4.38-3.428,6.318l-1.34,7.532h-9.356c.856-4.857,2.172-12.3,3.088-17.436.215-1.205.408-2.281.568-3.168.094-.525.178-.985.247-1.363.111-.608.186-1.009.216-1.147a3.574,3.574,0,0,0,.059-.381,2.993,2.993,0,0,0-.6-2.181,3.331,3.331,0,0,0-1.833-1.143,3.879,3.879,0,0,0-.782-.12h-1.684c-.13,0-.256.012-.38.026a3.728,3.728,0,0,0-.985.252,4.336,4.336,0,0,0-2.508,3.285l-.606,3.3-3.732,20.295-9.4.007a67.727,67.727,0,0,0,1.217-8.7,5.077,5.077,0,0,0-1.426-4.195,5.193,5.193,0,0,0-.948-.736,8.739,8.739,0,0,0-4.809-1.027c-.707-.005-5.309-.036-7.433,0a4.817,4.817,0,0,0-1.9.4c.014-.072.031-.141.043-.215l.656-3.964.213-1.284.232-1.4.358-2.163.022-.186a7.863,7.863,0,0,0-.457-3.55,4.779,4.779,0,0,0-.959-1.507,4.5,4.5,0,0,0-.964-.772,5.149,5.149,0,0,0-2.07-.666,7.781,7.781,0,0,0-1.422-.024c-3.636.252-7.716,2.674-8.837,3.382a27.593,27.593,0,0,0-6.648,5.391c-.4.445-.8.91-1.176,1.39q-.486.619-.93,1.275a15.635,15.635,0,0,0-2.269,4.861,11.174,11.174,0,0,0-.275,1.464c-.583,5.039,3.29,9.719,5.79,12.512-3.167,0-11.025-.006-12.093-.029a4.092,4.092,0,0,0-3.8,2.948l-.75,1.771-.035.131a4.344,4.344,0,0,0,.4,3.8,3.067,3.067,0,0,0,2.242,1.265l14.7,0a9.348,9.348,0,0,0,9.242-6.456c1.676-5.239-2.355-9.381-2.932-9.94-.231-.245-.466-.49-.7-.734-3.167-3.3-3.808-4.471-2.282-6.466.046-.061.1-.121.149-.182,1.461-1.786,4.281-3.541,6.683-4.8-.258,1.363-.521,2.776-.675,3.65a4.93,4.93,0,0,0-.071,1.191,3.262,3.262,0,0,0,3.407,3.14h1.6a2.651,2.651,0,0,0,.913-.073l-.358,1.295-.015.056a4.023,4.023,0,0,0,.482,3.467,3.268,3.268,0,0,0,1.669,1.19c-.778,5.515-.068,9.569,2.119,12.065a6.944,6.944,0,0,0,5.15,2.426c.058,0,.107,0,.146,0,1.318-.014,39.673-.424,41.852-.391a7.077,7.077,0,0,0,4.433-2.071l.009.009c1.847,2.027,5.04,2.069,5.484,2.06h15.127c2.7.074,4.261-2,5.048-4.118a6.82,6.82,0,0,0,1.066,1.443c2.748,2.839,7.182,2.712,7.974,2.662.882-.005,11.1-.056,12.669,0l.161,0a4.8,4.8,0,0,0,4.162-2.616l.052-.1.039-.108c.026-.072.645-1.785,1.069-3.33A2.814,2.814,0,0,0,578.914,589.471ZM470.221,576.766h-1.7a2,2,0,0,1-1.511-.623,2.363,2.363,0,0,1-.418-2.065c.264-1.5.872-4.691,1.194-6.372-2.225,1.006-7.563,3.634-9.842,6.614-2.472,3.233-.221,5.574,2.385,8.287.239.249.479.5.714.749.319.3,4.059,3.951,2.594,8.527-1.67,5.218-6.88,5.482-7.908,5.482H441.109a1.655,1.655,0,0,1-1.187-.685,3.05,3.05,0,0,1-.189-2.617l.026-.075.72-1.7c.093-.276.765-2.083,2.455-2.041,1.349.029,13.317.029,13.438.029a2.85,2.85,0,0,0,1.457-.249.844.844,0,0,0-.151-.285c-.19-.264-.568-.681-1.046-1.21-2.282-2.523-6.53-7.22-5.975-12.008.645-5.57,6.706-11.242,10.614-13.334.51-.322,7.55-4.695,10.905-2.7,1.285.765,1.857,2.288,1.7,4.527l-.007.054-1.459,8.812C472.321,574.407,471.8,576.956,470.221,576.766Zm107.826,14.889c-.41,1.493-1.01,3.154-1.035,3.225l-.027.062a3.419,3.419,0,0,1-3.022,1.839c-1.63-.056-12.252,0-12.767,0-.375.024-4.528.235-6.918-2.236a6.437,6.437,0,0,1-1.561-5.414l.961-6.959h-.667l-1.587,9.226c-.048.393-.732,5.4-4.128,5.4l-.128,0h-15.15c-.112,0-2.949.028-4.436-1.6a3.274,3.274,0,0,1-.747-1.345c-1.1,1.218-2.968,2.95-4.669,2.95h-.039c-2.21-.04-41.05.383-41.909.391-.022,0-.059,0-.11,0a5.568,5.568,0,0,1-4.1-1.949c-2.09-2.385-2.61-6.558-1.55-12.408l-.86,0a1.86,1.86,0,0,1-1.3-.745,2.72,2.72,0,0,1-.255-2.31l.5-1.812a3.147,3.147,0,0,1,3.129-2.639c2.155-.037,7.051,0,7.457,0,.346-.027,3.154-.195,4.724,1.358a3.712,3.712,0,0,1,1.015,3.086c-.026.323-.589,7.184-1.668,10.213l12.417-.009,4.551-24.751a2.757,2.757,0,0,1,2.519-2.4h1.586a2.225,2.225,0,0,1,1.583.725,1.644,1.644,0,0,1,.271,1.41c-.259,1.216-3.722,20.862-4.417,24.806h12.2l1.549-8.7c.038-.235,1.014-5.956,4.762-6.044h8.085a2.793,2.793,0,0,1,2.171.762,2.136,2.136,0,0,1,.364,1.974c-.5,2.179-2.041,10.856-2.056,10.943l-.008.041a.932.932,0,0,0,.135.7,1.58,1.58,0,0,0,1.176.387c1.987.033,9.6.009,11.6,0l2.675-14.56c.011-.077.365-2.289,1.992-2.884.89-.43,2.983-1.3,3.9-.5a1.444,1.444,0,0,1,.272,1.659l-.273,1.219h6.107a2.421,2.421,0,0,1,1.917.648,1.545,1.545,0,0,1,.21,1.494,12.485,12.485,0,0,0-.471,2.9,2.194,2.194,0,0,1-1.979,2.37c-.005,0-.585.186-1.133,2.94a31.968,31.968,0,0,0-.45,3.208l-.019.105a.678.678,0,0,0,.126.519,2.15,2.15,0,0,0,1.609.5c2.671.057,14.7.1,15.131.1a3.377,3.377,0,0,1,2.51.816A1.418,1.418,0,0,1,578.047,591.655Z" transform="translate(0 -311.35)"/>
    <path id="Path_29" data-name="Path 29" d="M808.923,660.5l-.531,3.693,2.441-3.693Z" transform="translate(-283.83 -389.482)"/>
    <path id="Path_30" data-name="Path 30" d="M690.093,608.455h-.024c-.124,0-12.446-.039-15.163-.1a3.075,3.075,0,0,1-2.526-.974,1.84,1.84,0,0,1-.325-1.448c.174-2.122.772-6.969,2.614-7.174a1.025,1.025,0,0,0,.941-1.162l0-.049a13.511,13.511,0,0,1,.521-3.23c.043-.141.077-.33,0-.424-.156-.193-.7-.237-.941-.218l-.048,0h-7.585l.611-2.719a.818.818,0,0,0,.068-.461,4.962,4.962,0,0,0-2.642.7l-.064.026c-.821.286-1.187,1.533-1.258,1.989l-2.852,15.529-.485,0c-.1,0-9.816.038-12.11,0a2.532,2.532,0,0,1-2.088-.851,2.075,2.075,0,0,1-.342-1.659c.1-.535,1.567-8.8,2.064-10.983a1.07,1.07,0,0,0-.109-.951,1.728,1.728,0,0,0-1.221-.36l-.046,0h-8.092c-2.776.065-3.617,5.023-3.625,5.073l-1.721,9.671H619.08l.12-.684c.174-.986,4.255-24.166,4.546-25.531.064-.3-.022-.413-.051-.449a1.1,1.1,0,0,0-.684-.276h-1.554c-1.127.02-1.377,1.425-1.38,1.44L615.35,608.9l-15.318.011.531-.884c1-1.66,1.711-8.208,1.9-10.591a2.567,2.567,0,0,0-.67-2.159c-1.251-1.241-3.806-1.028-3.831-1.025l-.028,0h-.029c-.052,0-5.231-.038-7.455,0a1.982,1.982,0,0,0-2,1.683l-.015.068-.506,1.828a1.675,1.675,0,0,0,.071,1.33.712.712,0,0,0,.431.266h10.711l-.069.645c-.351,3.275-2.126,7.59-4.381,8.85a1.03,1.03,0,0,1-1.134-.014c-.487-.347-.935-1.217-.559-5.048.125-1.278.309-2.526.427-3.268H590.4c-1.291,6.929-.058,10.14,1.223,11.619a4.338,4.338,0,0,0,3.294,1.57h.028c1.62-.017,39.714-.425,41.951-.392,1.6.031,3.935-2.6,4.7-3.615l1.276-1.7-.23,2.11a2.387,2.387,0,0,0,.553,1.978,5.311,5.311,0,0,0,3.564,1.223h15.181c2.522.091,3.072-4.337,3.077-4.381l0-.032,1.756-10.21h2.99l-1.142,8.269a5.314,5.314,0,0,0,1.242,4.46c2.076,2.146,5.976,1.885,6.015,1.882l.04,0c.455,0,11.148-.06,12.832,0a2.219,2.219,0,0,0,1.925-1.172c.093-.259.63-1.772.993-3.1.052-.189,0-.25-.019-.279A2.482,2.482,0,0,0,690.093,608.455Zm-52.671.353,1.415-9.845h5.092Z" transform="translate(-114.756 -329.113)"/>
    <path id="Path_31" data-name="Path 31" d="M479.693,582.058l1.453-8.779c.118-1.748-.264-2.9-1.134-3.416-2.32-1.382-7.789,1.475-9.7,2.692l-.039.023c-3.19,1.7-9.4,7.1-10.023,12.448-.494,4.263,3.524,8.7,5.682,11.091.5.555.9.994,1.126,1.309a1.36,1.36,0,0,1,.243,1.51c-.475.885-2.048.893-2.52.874-.469,0-12.078,0-13.44-.029h-.021c-.892,0-1.3,1.241-1.306,1.253l-.02.055-.714,1.683c-.258.979-.106,1.408.009,1.579a.5.5,0,0,0,.319.216h14.553c.885,0,5.374-.225,6.8-4.671,1.268-3.961-2.256-7.3-2.292-7.33l-.028-.028c-.237-.252-.478-.5-.719-.753-2.6-2.708-5.552-5.777-2.471-9.805,3.1-4.048,11-7.286,11.331-7.422l1-.4-.2,1.055c-.011.054-1.034,5.369-1.4,7.441a1.4,1.4,0,0,0,.136,1.083.858.858,0,0,0,.6.236h.026l1.84.007C479.052,584.023,479.522,583.031,479.693,582.058Z" transform="translate(-8.432 -319.719)"/>
    <path id="Path_32" data-name="Path 32" d="M477.013,578.464l1.459-8.812.007-.054c.157-2.239-.415-3.763-1.7-4.528-3.355-2-10.4,2.376-10.905,2.7-3.907,2.092-9.969,7.764-10.614,13.334-.554,4.787,3.693,9.484,5.975,12.008.478.529.856.946,1.046,1.21a.855.855,0,0,1,.151.285,2.853,2.853,0,0,1-1.458.249c-.121,0-12.089,0-13.438-.029-1.691-.041-2.362,1.765-2.455,2.041l-.72,1.7-.026.076a3.049,3.049,0,0,0,.189,2.617,1.655,1.655,0,0,0,1.187.685h14.621c1.028,0,6.238-.265,7.909-5.483,1.464-4.576-2.276-8.227-2.595-8.527-.235-.25-.475-.5-.714-.749-2.606-2.712-4.857-5.054-2.385-8.287,2.279-2.98,7.617-5.608,9.842-6.614-.322,1.68-.929,4.871-1.193,6.372a2.362,2.362,0,0,0,.418,2.066,2.006,2.006,0,0,0,1.511.623h1.7C476.4,581.536,476.922,578.987,477.013,578.464Zm-2.062,1.721-1.84-.007h-.026a.859.859,0,0,1-.605-.237,1.4,1.4,0,0,1-.136-1.082c.365-2.073,1.388-7.388,1.4-7.441l.2-1.055-1,.4c-.335.136-8.236,3.374-11.331,7.422-3.08,4.028-.131,7.1,2.471,9.8.241.251.482.5.719.753l.028.028c.036.033,3.559,3.369,2.292,7.33-1.423,4.446-5.911,4.671-6.8,4.671H445.778a.5.5,0,0,1-.319-.216c-.115-.17-.267-.6-.009-1.579l.714-1.683.02-.055c0-.013.414-1.253,1.306-1.253h.021c1.362.029,12.97.029,13.44.029.471.018,2.044.012,2.52-.874a1.359,1.359,0,0,0-.243-1.509c-.228-.315-.625-.754-1.127-1.309-2.158-2.386-6.175-6.829-5.682-11.091.62-5.349,6.834-10.747,10.024-12.449l.039-.023c1.912-1.217,7.381-4.074,9.7-2.692.871.518,1.252,1.667,1.134,3.416l-1.453,8.779C475.691,579.242,475.221,580.233,474.951,580.185Z" transform="translate(-4.601 -315.929)" fill="#ffd566"/>
    <path id="Path_33" data-name="Path 33" d="M686.232,603.457c-.433,0-12.46-.04-15.131-.1a2.149,2.149,0,0,1-1.609-.5.677.677,0,0,1-.126-.519l.018-.1a32.08,32.08,0,0,1,.45-3.208c.549-2.755,1.127-2.94,1.133-2.941a2.193,2.193,0,0,0,1.978-2.37,12.489,12.489,0,0,1,.471-2.895,1.545,1.545,0,0,0-.209-1.494,2.422,2.422,0,0,0-1.917-.648h-6.106l.273-1.218a1.443,1.443,0,0,0-.273-1.659c-.919-.8-3.012.071-3.9.5-1.626.6-1.981,2.808-1.992,2.885l-2.675,14.56c-2,.007-9.616.031-11.6,0a1.578,1.578,0,0,1-1.176-.388.93.93,0,0,1-.135-.695l.008-.041c.015-.087,1.559-8.764,2.056-10.943a2.135,2.135,0,0,0-.364-1.974,2.794,2.794,0,0,0-2.17-.762h-8.085c-3.748.088-4.724,5.809-4.762,6.044l-1.548,8.7h-12.2c.695-3.944,4.158-23.589,4.417-24.8a1.646,1.646,0,0,0-.272-1.411,2.226,2.226,0,0,0-1.583-.724h-1.586a2.757,2.757,0,0,0-2.519,2.4L610.548,603.9l-12.417.009c1.08-3.029,1.642-9.89,1.668-10.213a3.71,3.71,0,0,0-1.015-3.085c-1.571-1.554-4.378-1.386-4.724-1.359-.406,0-5.3-.036-7.457,0a3.147,3.147,0,0,0-3.129,2.64l-.5,1.811a2.721,2.721,0,0,0,.255,2.311,1.861,1.861,0,0,0,1.3.745l.86,0c-1.06,5.851-.54,10.023,1.55,12.409a5.569,5.569,0,0,0,4.1,1.949c.051,0,.088,0,.11,0,.859-.009,39.7-.432,41.909-.391h.039c1.7,0,3.566-1.732,4.668-2.95a3.271,3.271,0,0,0,.747,1.345c1.487,1.632,4.323,1.6,4.436,1.6h15.151l.128,0c3.4,0,4.079-5.005,4.128-5.4l1.587-9.227h.667l-.961,6.96a6.437,6.437,0,0,0,1.561,5.414c2.39,2.471,6.544,2.26,6.918,2.236.515,0,11.137-.059,12.767,0a3.418,3.418,0,0,0,3.022-1.839l.027-.061c.025-.071.625-1.731,1.035-3.225a1.42,1.42,0,0,0-.231-1.314A3.377,3.377,0,0,0,686.232,603.457Zm1.615,1.82c-.364,1.326-.9,2.838-.993,3.1a2.22,2.22,0,0,1-1.926,1.171c-1.685-.058-12.377,0-12.832,0h-.04c-.039,0-3.94.263-6.015-1.882a5.313,5.313,0,0,1-1.242-4.46l1.142-8.269h-2.99L661.2,605.148l0,.031c-.005.045-.556,4.472-3.077,4.381H642.934a5.309,5.309,0,0,1-3.564-1.222,2.388,2.388,0,0,1-.553-1.978l.23-2.11-1.277,1.7c-.763,1.015-3.1,3.646-4.7,3.615-2.237-.032-40.331.375-41.952.392h-.027a4.338,4.338,0,0,1-3.295-1.57c-1.281-1.478-2.513-4.69-1.223-11.619H589.6c-.118.741-.3,1.99-.428,3.268-.376,3.83.071,4.7.559,5.048a1.03,1.03,0,0,0,1.134.014c2.255-1.26,4.029-5.576,4.38-8.85l.069-.646H584.6a.715.715,0,0,1-.431-.266A1.675,1.675,0,0,1,584.1,594l.506-1.828.014-.068a1.983,1.983,0,0,1,2-1.683c2.224-.038,7.4,0,7.455,0h.029l.029,0c.025,0,2.58-.215,3.831,1.026a2.565,2.565,0,0,1,.67,2.159c-.191,2.384-.907,8.931-1.9,10.591l-.53.884,15.317-.01,4.729-25.715c0-.014.253-1.419,1.379-1.44h1.554a1.1,1.1,0,0,1,.684.275c.028.037.115.147.05.45-.29,1.366-4.372,24.545-4.546,25.531l-.121.685h14.567l1.721-9.671c.008-.051.849-5.009,3.625-5.074h8.092l.046,0a1.733,1.733,0,0,1,1.221.36,1.069,1.069,0,0,1,.109.951c-.5,2.181-1.97,10.448-2.065,10.983a2.075,2.075,0,0,0,.341,1.658,2.533,2.533,0,0,0,2.088.852c2.294.038,12.013,0,12.111,0l.484,0,2.853-15.529c.072-.456.437-1.7,1.259-1.989l.063-.026a4.955,4.955,0,0,1,2.642-.7.819.819,0,0,1-.068.46l-.612,2.719h7.585l.048,0c.243-.019.784.025.941.218.076.094.041.282,0,.424a13.451,13.451,0,0,0-.52,3.23v.048a1.024,1.024,0,0,1-.94,1.163c-1.842.205-2.441,5.052-2.615,7.174a1.843,1.843,0,0,0,.325,1.448,3.076,3.076,0,0,0,2.526.974c2.717.058,15.039.1,15.162.1h.025a2.483,2.483,0,0,1,1.564.374C687.851,605.027,687.9,605.088,687.847,605.277Zm-97.066-8.511H594c-.49,3.088-2.1,6.348-3.639,7.272C590.032,603.3,590.212,600.15,590.781,596.766Z" transform="translate(-110.926 -325.281)" fill="#ffd566"/>
    <path id="Path_34" data-name="Path 34" d="M800.273,665.345l6.507-9.845h-5.092Zm2.427-8.678h1.91l-2.441,3.693Z" transform="translate(-277.606 -385.65)" fill="#ffd566"/>
  </g>
</svg>
